<mxfile host="app.diagrams.net" modified="2023-08-08T20:26:43.577Z" agent="Mozilla/5.0 (Windows NT 10.0; Win64; x64) AppleWebKit/537.36 (KHTML, like Gecko) Chrome/115.0.0.0 Safari/537.36" etag="ukebkqXV7iZfJIySeK8r" version="21.6.5" type="device">
  <diagram name="PÃ¡gina-1" id="LY6qSqeoL0THJwQgAmmI">
    <mxGraphModel dx="1434" dy="758" grid="1" gridSize="10" guides="1" tooltips="1" connect="1" arrows="1" fold="1" page="1" pageScale="1" pageWidth="827" pageHeight="1169" math="0" shadow="0">
      <root>
        <mxCell id="0" />
        <mxCell id="1" parent="0" />
        <mxCell id="d175WbEXhGS790uSPAoN-16" value="Users" style="swimlane;fontStyle=0;childLayout=stackLayout;horizontal=1;startSize=30;horizontalStack=0;resizeParent=1;resizeParentMax=0;resizeLast=0;collapsible=1;marginBottom=0;whiteSpace=wrap;html=1;container=0;fillColor=#1ba1e2;strokeColor=#006EAF;fontColor=#ffffff;" vertex="1" parent="1">
          <mxGeometry x="40" y="40" width="140" height="230" as="geometry" />
        </mxCell>
        <mxCell id="d175WbEXhGS790uSPAoN-25" value="ObjectId&lt;br style=&quot;font-size: 14px;&quot;&gt;first_name&lt;br style=&quot;font-size: 14px;&quot;&gt;last_name&lt;br&gt;email(unique, index)&lt;br style=&quot;font-size: 14px;&quot;&gt;age&lt;br&gt;password&lt;br style=&quot;font-size: 14px;&quot;&gt;profile_picture&lt;br style=&quot;font-size: 14px;&quot;&gt;id_cart&lt;br style=&quot;font-size: 14px;&quot;&gt;role&lt;br style=&quot;font-size: 14px;&quot;&gt;documents&lt;br style=&quot;font-size: 14px;&quot;&gt;last_connection" style="text;align=left;verticalAlign=middle;resizable=0;points=[];autosize=1;strokeColor=none;fillColor=none;strokeWidth=1;horizontal=1;spacingTop=0;spacing=0;html=1;fontSize=14;fontStyle=0;spacingRight=0;" vertex="1" parent="1">
          <mxGeometry x="43" y="72" width="140" height="190" as="geometry" />
        </mxCell>
      </root>
    </mxGraphModel>
  </diagram>
</mxfile>
